<mxfile host="app.diagrams.net" modified="2023-11-13T19:20:12.048Z" agent="Mozilla/5.0 (Windows NT 10.0; Win64; x64) AppleWebKit/537.36 (KHTML, like Gecko) Chrome/119.0.0.0 Safari/537.36" etag="kyeozh8pBfUJf6T04Ljm" version="22.1.0" type="device">
  <diagram name="Página-1" id="1xxZTwaEm_HYHYuUap7P">
    <mxGraphModel dx="1216" dy="1705" grid="1" gridSize="10" guides="1" tooltips="1" connect="1" arrows="1" fold="1" page="1" pageScale="1" pageWidth="827" pageHeight="1169" math="0" shadow="0">
      <root>
        <mxCell id="0" />
        <mxCell id="1" parent="0" />
        <mxCell id="aW2y5IfelmXRPiVyuJwB-1" value="Instituição" style="swimlane;fontStyle=1;align=center;verticalAlign=top;childLayout=stackLayout;horizontal=1;startSize=26;horizontalStack=0;resizeParent=1;resizeParentMax=0;resizeLast=0;collapsible=1;marginBottom=0;whiteSpace=wrap;html=1;labelBackgroundColor=none;fillColor=#dae8fc;strokeColor=#6c8ebf;" parent="1" vertex="1">
          <mxGeometry x="210" y="300" width="130" height="210" as="geometry">
            <mxRectangle x="210" y="300" width="100" height="30" as="alternateBounds" />
          </mxGeometry>
        </mxCell>
        <mxCell id="aW2y5IfelmXRPiVyuJwB-2" value="- nome: String&lt;br&gt;" style="text;strokeColor=none;fillColor=none;align=left;verticalAlign=top;spacingLeft=4;spacingRight=4;overflow=hidden;rotatable=0;points=[[0,0.5],[1,0.5]];portConstraint=eastwest;whiteSpace=wrap;html=1;" parent="aW2y5IfelmXRPiVyuJwB-1" vertex="1">
          <mxGeometry y="26" width="130" height="24" as="geometry" />
        </mxCell>
        <mxCell id="aW2y5IfelmXRPiVyuJwB-5" value="- endereço: String" style="text;html=1;strokeColor=none;fillColor=none;align=left;verticalAlign=middle;whiteSpace=wrap;rounded=0;labelBackgroundColor=default;" parent="aW2y5IfelmXRPiVyuJwB-1" vertex="1">
          <mxGeometry y="50" width="130" height="30" as="geometry" />
        </mxCell>
        <mxCell id="aW2y5IfelmXRPiVyuJwB-6" value="- tipoInstituição: String" style="text;html=1;strokeColor=none;fillColor=none;align=left;verticalAlign=middle;whiteSpace=wrap;rounded=0;" parent="aW2y5IfelmXRPiVyuJwB-1" vertex="1">
          <mxGeometry y="80" width="130" height="30" as="geometry" />
        </mxCell>
        <mxCell id="aW2y5IfelmXRPiVyuJwB-3" value="" style="line;strokeWidth=1;fillColor=none;align=left;verticalAlign=middle;spacingTop=-1;spacingLeft=3;spacingRight=3;rotatable=0;labelPosition=right;points=[];portConstraint=eastwest;strokeColor=inherit;" parent="aW2y5IfelmXRPiVyuJwB-1" vertex="1">
          <mxGeometry y="110" width="130" height="8" as="geometry" />
        </mxCell>
        <mxCell id="aW2y5IfelmXRPiVyuJwB-4" value="+ gerenciar turma()" style="text;strokeColor=none;fillColor=none;align=left;verticalAlign=top;spacingLeft=4;spacingRight=4;overflow=hidden;rotatable=0;points=[[0,0.5],[1,0.5]];portConstraint=eastwest;whiteSpace=wrap;html=1;" parent="aW2y5IfelmXRPiVyuJwB-1" vertex="1">
          <mxGeometry y="118" width="130" height="32" as="geometry" />
        </mxCell>
        <mxCell id="aW2y5IfelmXRPiVyuJwB-7" value="+ gerenciar curso()" style="text;html=1;strokeColor=none;fillColor=none;align=left;verticalAlign=middle;whiteSpace=wrap;rounded=0;" parent="aW2y5IfelmXRPiVyuJwB-1" vertex="1">
          <mxGeometry y="150" width="130" height="30" as="geometry" />
        </mxCell>
        <mxCell id="aW2y5IfelmXRPiVyuJwB-8" value="+ gerenciar alunos()" style="text;html=1;strokeColor=none;fillColor=none;align=left;verticalAlign=middle;whiteSpace=wrap;rounded=0;" parent="aW2y5IfelmXRPiVyuJwB-1" vertex="1">
          <mxGeometry y="180" width="130" height="30" as="geometry" />
        </mxCell>
        <mxCell id="aW2y5IfelmXRPiVyuJwB-36" value="Disciplina" style="swimlane;fontStyle=1;align=center;verticalAlign=top;childLayout=stackLayout;horizontal=1;startSize=26;horizontalStack=0;resizeParent=1;resizeParentMax=0;resizeLast=0;collapsible=1;marginBottom=0;whiteSpace=wrap;html=1;" parent="1" vertex="1">
          <mxGeometry x="680" y="-110" width="180" height="138" as="geometry" />
        </mxCell>
        <mxCell id="aW2y5IfelmXRPiVyuJwB-37" value="- nome: String" style="text;strokeColor=none;fillColor=none;align=left;verticalAlign=top;spacingLeft=4;spacingRight=4;overflow=hidden;rotatable=0;points=[[0,0.5],[1,0.5]];portConstraint=eastwest;whiteSpace=wrap;html=1;" parent="aW2y5IfelmXRPiVyuJwB-36" vertex="1">
          <mxGeometry y="26" width="180" height="26" as="geometry" />
        </mxCell>
        <mxCell id="aW2y5IfelmXRPiVyuJwB-40" value="- códigoDaDisciplina: int" style="text;strokeColor=none;fillColor=none;align=left;verticalAlign=top;spacingLeft=4;spacingRight=4;overflow=hidden;rotatable=0;points=[[0,0.5],[1,0.5]];portConstraint=eastwest;whiteSpace=wrap;html=1;" parent="aW2y5IfelmXRPiVyuJwB-36" vertex="1">
          <mxGeometry y="52" width="180" height="26" as="geometry" />
        </mxCell>
        <mxCell id="aW2y5IfelmXRPiVyuJwB-41" value="- descrição: String" style="text;strokeColor=none;fillColor=none;align=left;verticalAlign=top;spacingLeft=4;spacingRight=4;overflow=hidden;rotatable=0;points=[[0,0.5],[1,0.5]];portConstraint=eastwest;whiteSpace=wrap;html=1;" parent="aW2y5IfelmXRPiVyuJwB-36" vertex="1">
          <mxGeometry y="78" width="180" height="26" as="geometry" />
        </mxCell>
        <mxCell id="aW2y5IfelmXRPiVyuJwB-42" value="- créditos: String" style="text;strokeColor=none;fillColor=none;align=left;verticalAlign=top;spacingLeft=4;spacingRight=4;overflow=hidden;rotatable=0;points=[[0,0.5],[1,0.5]];portConstraint=eastwest;whiteSpace=wrap;html=1;" parent="aW2y5IfelmXRPiVyuJwB-36" vertex="1">
          <mxGeometry y="104" width="180" height="26" as="geometry" />
        </mxCell>
        <mxCell id="aW2y5IfelmXRPiVyuJwB-38" value="" style="line;strokeWidth=1;fillColor=none;align=left;verticalAlign=middle;spacingTop=-1;spacingLeft=3;spacingRight=3;rotatable=0;labelPosition=right;points=[];portConstraint=eastwest;strokeColor=inherit;" parent="aW2y5IfelmXRPiVyuJwB-36" vertex="1">
          <mxGeometry y="130" width="180" height="8" as="geometry" />
        </mxCell>
        <mxCell id="QErU5TyWKrit9KBBjGT5-39" style="edgeStyle=orthogonalEdgeStyle;rounded=0;orthogonalLoop=1;jettySize=auto;html=1;exitX=0.25;exitY=1;exitDx=0;exitDy=0;entryX=0.249;entryY=1.097;entryDx=0;entryDy=0;entryPerimeter=0;" edge="1" parent="aW2y5IfelmXRPiVyuJwB-36" source="aW2y5IfelmXRPiVyuJwB-36" target="aW2y5IfelmXRPiVyuJwB-38">
          <mxGeometry relative="1" as="geometry" />
        </mxCell>
        <mxCell id="aW2y5IfelmXRPiVyuJwB-45" value="Turma" style="swimlane;fontStyle=1;align=center;verticalAlign=top;childLayout=stackLayout;horizontal=1;startSize=26;horizontalStack=0;resizeParent=1;resizeParentMax=0;resizeLast=0;collapsible=1;marginBottom=0;whiteSpace=wrap;html=1;" parent="1" vertex="1">
          <mxGeometry x="390" y="-76" width="150" height="124" as="geometry" />
        </mxCell>
        <mxCell id="aW2y5IfelmXRPiVyuJwB-46" value="- período: String" style="text;strokeColor=none;fillColor=none;align=left;verticalAlign=top;spacingLeft=4;spacingRight=4;overflow=hidden;rotatable=0;points=[[0,0.5],[1,0.5]];portConstraint=eastwest;whiteSpace=wrap;html=1;" parent="aW2y5IfelmXRPiVyuJwB-45" vertex="1">
          <mxGeometry y="26" width="150" height="26" as="geometry" />
        </mxCell>
        <mxCell id="aW2y5IfelmXRPiVyuJwB-50" value="- disciplinasAssociadas: Disciplina" style="text;strokeColor=none;fillColor=none;align=left;verticalAlign=top;spacingLeft=4;spacingRight=4;overflow=hidden;rotatable=0;points=[[0,0.5],[1,0.5]];portConstraint=eastwest;whiteSpace=wrap;html=1;" parent="aW2y5IfelmXRPiVyuJwB-45" vertex="1">
          <mxGeometry y="52" width="150" height="38" as="geometry" />
        </mxCell>
        <mxCell id="edI8PjmjDtZ6T9lfZRyu-33" value="+ item: attribute" style="text;strokeColor=none;fillColor=none;align=left;verticalAlign=top;spacingLeft=4;spacingRight=4;overflow=hidden;rotatable=0;points=[[0,0.5],[1,0.5]];portConstraint=eastwest;whiteSpace=wrap;html=1;" parent="aW2y5IfelmXRPiVyuJwB-45" vertex="1">
          <mxGeometry y="90" width="150" height="26" as="geometry" />
        </mxCell>
        <mxCell id="aW2y5IfelmXRPiVyuJwB-47" value="" style="line;strokeWidth=1;fillColor=none;align=left;verticalAlign=middle;spacingTop=-1;spacingLeft=3;spacingRight=3;rotatable=0;labelPosition=right;points=[];portConstraint=eastwest;strokeColor=inherit;" parent="aW2y5IfelmXRPiVyuJwB-45" vertex="1">
          <mxGeometry y="116" width="150" height="8" as="geometry" />
        </mxCell>
        <mxCell id="aW2y5IfelmXRPiVyuJwB-53" value="Curso" style="swimlane;fontStyle=1;align=center;verticalAlign=top;childLayout=stackLayout;horizontal=1;startSize=26;horizontalStack=0;resizeParent=1;resizeParentMax=0;resizeLast=0;collapsible=1;marginBottom=0;whiteSpace=wrap;html=1;" parent="1" vertex="1">
          <mxGeometry x="180" y="70" width="160" height="138" as="geometry" />
        </mxCell>
        <mxCell id="aW2y5IfelmXRPiVyuJwB-54" value="- nome: String" style="text;strokeColor=none;fillColor=none;align=left;verticalAlign=top;spacingLeft=4;spacingRight=4;overflow=hidden;rotatable=0;points=[[0,0.5],[1,0.5]];portConstraint=eastwest;whiteSpace=wrap;html=1;" parent="aW2y5IfelmXRPiVyuJwB-53" vertex="1">
          <mxGeometry y="26" width="160" height="26" as="geometry" />
        </mxCell>
        <mxCell id="aW2y5IfelmXRPiVyuJwB-58" value="- codigo: String" style="text;strokeColor=none;fillColor=none;align=left;verticalAlign=top;spacingLeft=4;spacingRight=4;overflow=hidden;rotatable=0;points=[[0,0.5],[1,0.5]];portConstraint=eastwest;whiteSpace=wrap;html=1;" parent="aW2y5IfelmXRPiVyuJwB-53" vertex="1">
          <mxGeometry y="52" width="160" height="26" as="geometry" />
        </mxCell>
        <mxCell id="aW2y5IfelmXRPiVyuJwB-59" value="- descrição; String" style="text;strokeColor=none;fillColor=none;align=left;verticalAlign=top;spacingLeft=4;spacingRight=4;overflow=hidden;rotatable=0;points=[[0,0.5],[1,0.5]];portConstraint=eastwest;whiteSpace=wrap;html=1;" parent="aW2y5IfelmXRPiVyuJwB-53" vertex="1">
          <mxGeometry y="78" width="160" height="26" as="geometry" />
        </mxCell>
        <mxCell id="aW2y5IfelmXRPiVyuJwB-60" value="- disciplinas: disciplina" style="text;strokeColor=none;fillColor=none;align=left;verticalAlign=top;spacingLeft=4;spacingRight=4;overflow=hidden;rotatable=0;points=[[0,0.5],[1,0.5]];portConstraint=eastwest;whiteSpace=wrap;html=1;" parent="aW2y5IfelmXRPiVyuJwB-53" vertex="1">
          <mxGeometry y="104" width="160" height="26" as="geometry" />
        </mxCell>
        <mxCell id="aW2y5IfelmXRPiVyuJwB-55" value="" style="line;strokeWidth=1;fillColor=none;align=left;verticalAlign=middle;spacingTop=-1;spacingLeft=3;spacingRight=3;rotatable=0;labelPosition=right;points=[];portConstraint=eastwest;strokeColor=inherit;" parent="aW2y5IfelmXRPiVyuJwB-53" vertex="1">
          <mxGeometry y="130" width="160" height="8" as="geometry" />
        </mxCell>
        <mxCell id="edI8PjmjDtZ6T9lfZRyu-25" value="Pessoa" style="swimlane;fontStyle=1;align=center;verticalAlign=top;childLayout=stackLayout;horizontal=1;startSize=26;horizontalStack=0;resizeParent=1;resizeParentMax=0;resizeLast=0;collapsible=1;marginBottom=0;whiteSpace=wrap;html=1;" parent="1" vertex="1">
          <mxGeometry x="740" y="710" width="130" height="138" as="geometry" />
        </mxCell>
        <mxCell id="edI8PjmjDtZ6T9lfZRyu-26" value="- nome: String" style="text;strokeColor=none;fillColor=none;align=left;verticalAlign=top;spacingLeft=4;spacingRight=4;overflow=hidden;rotatable=0;points=[[0,0.5],[1,0.5]];portConstraint=eastwest;whiteSpace=wrap;html=1;" parent="edI8PjmjDtZ6T9lfZRyu-25" vertex="1">
          <mxGeometry y="26" width="130" height="26" as="geometry" />
        </mxCell>
        <mxCell id="edI8PjmjDtZ6T9lfZRyu-29" value="- endereço: String" style="text;strokeColor=none;fillColor=none;align=left;verticalAlign=top;spacingLeft=4;spacingRight=4;overflow=hidden;rotatable=0;points=[[0,0.5],[1,0.5]];portConstraint=eastwest;whiteSpace=wrap;html=1;" parent="edI8PjmjDtZ6T9lfZRyu-25" vertex="1">
          <mxGeometry y="52" width="130" height="26" as="geometry" />
        </mxCell>
        <mxCell id="edI8PjmjDtZ6T9lfZRyu-30" value="- numeroTelefone: int" style="text;strokeColor=none;fillColor=none;align=left;verticalAlign=top;spacingLeft=4;spacingRight=4;overflow=hidden;rotatable=0;points=[[0,0.5],[1,0.5]];portConstraint=eastwest;whiteSpace=wrap;html=1;" parent="edI8PjmjDtZ6T9lfZRyu-25" vertex="1">
          <mxGeometry y="78" width="130" height="26" as="geometry" />
        </mxCell>
        <mxCell id="edI8PjmjDtZ6T9lfZRyu-32" value="- matrícula: int" style="text;strokeColor=none;fillColor=none;align=left;verticalAlign=top;spacingLeft=4;spacingRight=4;overflow=hidden;rotatable=0;points=[[0,0.5],[1,0.5]];portConstraint=eastwest;whiteSpace=wrap;html=1;" parent="edI8PjmjDtZ6T9lfZRyu-25" vertex="1">
          <mxGeometry y="104" width="130" height="26" as="geometry" />
        </mxCell>
        <mxCell id="edI8PjmjDtZ6T9lfZRyu-27" value="" style="line;strokeWidth=1;fillColor=none;align=left;verticalAlign=middle;spacingTop=-1;spacingLeft=3;spacingRight=3;rotatable=0;labelPosition=right;points=[];portConstraint=eastwest;strokeColor=inherit;" parent="edI8PjmjDtZ6T9lfZRyu-25" vertex="1">
          <mxGeometry y="130" width="130" height="8" as="geometry" />
        </mxCell>
        <mxCell id="edI8PjmjDtZ6T9lfZRyu-34" value="Aluno" style="swimlane;fontStyle=2;align=center;verticalAlign=top;childLayout=stackLayout;horizontal=1;startSize=26;horizontalStack=0;resizeParent=1;resizeLast=0;collapsible=1;marginBottom=0;rounded=0;shadow=0;strokeWidth=1;fillColor=#d5e8d4;strokeColor=#82b366;" parent="1" vertex="1">
          <mxGeometry x="440" y="490" width="140" height="160" as="geometry">
            <mxRectangle x="440" y="490" width="160" height="26" as="alternateBounds" />
          </mxGeometry>
        </mxCell>
        <mxCell id="edI8PjmjDtZ6T9lfZRyu-38" value="- dataNascimento: Date&#xa;&#xa;" style="text;align=left;verticalAlign=top;spacingLeft=4;spacingRight=4;overflow=hidden;rotatable=0;points=[[0,0.5],[1,0.5]];portConstraint=eastwest;rounded=0;shadow=0;html=0;whiteSpace=wrap;" parent="edI8PjmjDtZ6T9lfZRyu-34" vertex="1">
          <mxGeometry y="26" width="140" height="32" as="geometry" />
        </mxCell>
        <mxCell id="edI8PjmjDtZ6T9lfZRyu-39" value="- notas: Nota" style="text;strokeColor=none;fillColor=none;align=left;verticalAlign=top;spacingLeft=4;spacingRight=4;overflow=hidden;rotatable=0;points=[[0,0.5],[1,0.5]];portConstraint=eastwest;whiteSpace=wrap;html=1;" parent="edI8PjmjDtZ6T9lfZRyu-34" vertex="1">
          <mxGeometry y="58" width="140" height="26" as="geometry" />
        </mxCell>
        <mxCell id="edI8PjmjDtZ6T9lfZRyu-40" value="" style="line;strokeWidth=1;rotatable=0;dashed=0;labelPosition=right;align=left;verticalAlign=middle;spacingTop=0;spacingLeft=6;points=[];portConstraint=eastwest;" parent="edI8PjmjDtZ6T9lfZRyu-34" vertex="1">
          <mxGeometry y="84" width="140" height="10" as="geometry" />
        </mxCell>
        <mxCell id="edI8PjmjDtZ6T9lfZRyu-41" value="" style="line;html=1;strokeWidth=1;align=left;verticalAlign=middle;spacingTop=-1;spacingLeft=3;spacingRight=3;rotatable=0;labelPosition=right;points=[];portConstraint=eastwest;" parent="edI8PjmjDtZ6T9lfZRyu-34" vertex="1">
          <mxGeometry y="94" width="140" as="geometry" />
        </mxCell>
        <mxCell id="edI8PjmjDtZ6T9lfZRyu-42" value="+ matricular ()" style="text;align=left;verticalAlign=top;spacingLeft=4;spacingRight=4;overflow=hidden;rotatable=0;points=[[0,0.5],[1,0.5]];portConstraint=eastwest;" parent="edI8PjmjDtZ6T9lfZRyu-34" vertex="1">
          <mxGeometry y="94" width="140" height="30" as="geometry" />
        </mxCell>
        <mxCell id="edI8PjmjDtZ6T9lfZRyu-43" value="&amp;nbsp;+ verNotas()" style="text;html=1;align=left;verticalAlign=middle;whiteSpace=wrap;rounded=0;" parent="edI8PjmjDtZ6T9lfZRyu-34" vertex="1">
          <mxGeometry y="124" width="140" height="30" as="geometry" />
        </mxCell>
        <mxCell id="edI8PjmjDtZ6T9lfZRyu-86" value="Nota" style="swimlane;fontStyle=1;align=center;verticalAlign=top;childLayout=stackLayout;horizontal=1;startSize=26;horizontalStack=0;resizeParent=1;resizeParentMax=0;resizeLast=0;collapsible=1;marginBottom=0;whiteSpace=wrap;html=1;" parent="1" vertex="1">
          <mxGeometry x="725" y="900" width="160" height="138" as="geometry" />
        </mxCell>
        <mxCell id="edI8PjmjDtZ6T9lfZRyu-87" value="- disciplina: disciplina" style="text;strokeColor=none;fillColor=none;align=left;verticalAlign=top;spacingLeft=4;spacingRight=4;overflow=hidden;rotatable=0;points=[[0,0.5],[1,0.5]];portConstraint=eastwest;whiteSpace=wrap;html=1;" parent="edI8PjmjDtZ6T9lfZRyu-86" vertex="1">
          <mxGeometry y="26" width="160" height="26" as="geometry" />
        </mxCell>
        <mxCell id="edI8PjmjDtZ6T9lfZRyu-88" value="- valor: Double" style="text;strokeColor=none;fillColor=none;align=left;verticalAlign=top;spacingLeft=4;spacingRight=4;overflow=hidden;rotatable=0;points=[[0,0.5],[1,0.5]];portConstraint=eastwest;whiteSpace=wrap;html=1;" parent="edI8PjmjDtZ6T9lfZRyu-86" vertex="1">
          <mxGeometry y="52" width="160" height="26" as="geometry" />
        </mxCell>
        <mxCell id="edI8PjmjDtZ6T9lfZRyu-89" value="- dataAvaliação: date" style="text;strokeColor=none;fillColor=none;align=left;verticalAlign=top;spacingLeft=4;spacingRight=4;overflow=hidden;rotatable=0;points=[[0,0.5],[1,0.5]];portConstraint=eastwest;whiteSpace=wrap;html=1;" parent="edI8PjmjDtZ6T9lfZRyu-86" vertex="1">
          <mxGeometry y="78" width="160" height="26" as="geometry" />
        </mxCell>
        <mxCell id="edI8PjmjDtZ6T9lfZRyu-90" value="-tipo: String" style="text;strokeColor=none;fillColor=none;align=left;verticalAlign=top;spacingLeft=4;spacingRight=4;overflow=hidden;rotatable=0;points=[[0,0.5],[1,0.5]];portConstraint=eastwest;whiteSpace=wrap;html=1;" parent="edI8PjmjDtZ6T9lfZRyu-86" vertex="1">
          <mxGeometry y="104" width="160" height="26" as="geometry" />
        </mxCell>
        <mxCell id="edI8PjmjDtZ6T9lfZRyu-91" value="" style="line;strokeWidth=1;fillColor=none;align=left;verticalAlign=middle;spacingTop=-1;spacingLeft=3;spacingRight=3;rotatable=0;labelPosition=right;points=[];portConstraint=eastwest;strokeColor=inherit;" parent="edI8PjmjDtZ6T9lfZRyu-86" vertex="1">
          <mxGeometry y="130" width="160" height="8" as="geometry" />
        </mxCell>
        <mxCell id="QErU5TyWKrit9KBBjGT5-38" style="edgeStyle=orthogonalEdgeStyle;rounded=0;orthogonalLoop=1;jettySize=auto;html=1;entryX=0.75;entryY=1;entryDx=0;entryDy=0;" edge="1" parent="1" source="aW2y5IfelmXRPiVyuJwB-9" target="aW2y5IfelmXRPiVyuJwB-36">
          <mxGeometry relative="1" as="geometry">
            <mxPoint x="820" y="90" as="targetPoint" />
            <Array as="points">
              <mxPoint x="1100" y="200" />
              <mxPoint x="815" y="200" />
            </Array>
          </mxGeometry>
        </mxCell>
        <mxCell id="aW2y5IfelmXRPiVyuJwB-9" value="Professor" style="swimlane;fontStyle=1;align=center;verticalAlign=top;childLayout=stackLayout;horizontal=1;startSize=26;horizontalStack=0;resizeParent=1;resizeParentMax=0;resizeLast=0;collapsible=1;marginBottom=0;whiteSpace=wrap;html=1;labelBackgroundColor=none;fillColor=#f8cecc;strokeColor=#b85450;" parent="1" vertex="1">
          <mxGeometry x="1020" y="470" width="160" height="146" as="geometry">
            <mxRectangle x="1020" y="470" width="100" height="30" as="alternateBounds" />
          </mxGeometry>
        </mxCell>
        <mxCell id="aW2y5IfelmXRPiVyuJwB-10" value="- turma: turma" style="text;strokeColor=none;fillColor=none;align=left;verticalAlign=top;spacingLeft=4;spacingRight=4;overflow=hidden;rotatable=0;points=[[0,0.5],[1,0.5]];portConstraint=eastwest;whiteSpace=wrap;html=1;" parent="aW2y5IfelmXRPiVyuJwB-9" vertex="1">
          <mxGeometry y="26" width="160" height="26" as="geometry" />
        </mxCell>
        <mxCell id="aW2y5IfelmXRPiVyuJwB-13" value="&amp;nbsp;- disciplina: String" style="text;html=1;strokeColor=none;fillColor=none;align=left;verticalAlign=middle;whiteSpace=wrap;rounded=0;" parent="aW2y5IfelmXRPiVyuJwB-9" vertex="1">
          <mxGeometry y="52" width="160" height="30" as="geometry" />
        </mxCell>
        <mxCell id="aW2y5IfelmXRPiVyuJwB-11" value="" style="line;strokeWidth=1;fillColor=none;align=left;verticalAlign=middle;spacingTop=-1;spacingLeft=3;spacingRight=3;rotatable=0;labelPosition=right;points=[];portConstraint=eastwest;strokeColor=inherit;" parent="aW2y5IfelmXRPiVyuJwB-9" vertex="1">
          <mxGeometry y="82" width="160" height="8" as="geometry" />
        </mxCell>
        <mxCell id="aW2y5IfelmXRPiVyuJwB-12" value="+ atribuir notas( )&lt;br&gt;" style="text;strokeColor=none;fillColor=none;align=left;verticalAlign=top;spacingLeft=4;spacingRight=4;overflow=hidden;rotatable=0;points=[[0,0.5],[1,0.5]];portConstraint=eastwest;whiteSpace=wrap;html=1;" parent="aW2y5IfelmXRPiVyuJwB-9" vertex="1">
          <mxGeometry y="90" width="160" height="26" as="geometry" />
        </mxCell>
        <mxCell id="aW2y5IfelmXRPiVyuJwB-34" value="&amp;nbsp;+ ministrar disciplinas( )" style="text;html=1;strokeColor=none;fillColor=none;align=left;verticalAlign=middle;whiteSpace=wrap;rounded=0;" parent="aW2y5IfelmXRPiVyuJwB-9" vertex="1">
          <mxGeometry y="116" width="160" height="30" as="geometry" />
        </mxCell>
        <mxCell id="QErU5TyWKrit9KBBjGT5-9" value="" style="endArrow=none;html=1;edgeStyle=orthogonalEdgeStyle;rounded=0;exitX=0.25;exitY=0;exitDx=0;exitDy=0;" edge="1" parent="1" source="edI8PjmjDtZ6T9lfZRyu-25">
          <mxGeometry relative="1" as="geometry">
            <mxPoint x="590" y="490" as="sourcePoint" />
            <mxPoint x="580" y="510" as="targetPoint" />
            <Array as="points">
              <mxPoint x="772" y="510" />
            </Array>
          </mxGeometry>
        </mxCell>
        <mxCell id="QErU5TyWKrit9KBBjGT5-10" value="parent" style="edgeLabel;resizable=0;html=1;align=left;verticalAlign=bottom;" connectable="0" vertex="1" parent="QErU5TyWKrit9KBBjGT5-9">
          <mxGeometry x="-1" relative="1" as="geometry" />
        </mxCell>
        <mxCell id="QErU5TyWKrit9KBBjGT5-11" value="child" style="edgeLabel;resizable=0;html=1;align=right;verticalAlign=bottom;" connectable="0" vertex="1" parent="QErU5TyWKrit9KBBjGT5-9">
          <mxGeometry x="1" relative="1" as="geometry">
            <mxPoint x="29" as="offset" />
          </mxGeometry>
        </mxCell>
        <mxCell id="QErU5TyWKrit9KBBjGT5-12" value="" style="endArrow=none;html=1;edgeStyle=orthogonalEdgeStyle;rounded=0;exitX=0.75;exitY=0;exitDx=0;exitDy=0;entryX=0;entryY=0.5;entryDx=0;entryDy=0;" edge="1" parent="1" source="edI8PjmjDtZ6T9lfZRyu-25" target="aW2y5IfelmXRPiVyuJwB-10">
          <mxGeometry relative="1" as="geometry">
            <mxPoint x="1020" y="674" as="sourcePoint" />
            <mxPoint x="900" y="420" as="targetPoint" />
          </mxGeometry>
        </mxCell>
        <mxCell id="QErU5TyWKrit9KBBjGT5-13" value="parent" style="edgeLabel;resizable=0;html=1;align=left;verticalAlign=bottom;" connectable="0" vertex="1" parent="QErU5TyWKrit9KBBjGT5-12">
          <mxGeometry x="-1" relative="1" as="geometry" />
        </mxCell>
        <mxCell id="QErU5TyWKrit9KBBjGT5-14" value="child" style="edgeLabel;resizable=0;html=1;align=right;verticalAlign=bottom;" connectable="0" vertex="1" parent="QErU5TyWKrit9KBBjGT5-12">
          <mxGeometry x="1" relative="1" as="geometry">
            <mxPoint x="-10" as="offset" />
          </mxGeometry>
        </mxCell>
        <mxCell id="QErU5TyWKrit9KBBjGT5-20" style="edgeStyle=orthogonalEdgeStyle;rounded=0;orthogonalLoop=1;jettySize=auto;html=1;entryX=-0.021;entryY=-0.174;entryDx=0;entryDy=0;entryPerimeter=0;" edge="1" parent="1" target="aW2y5IfelmXRPiVyuJwB-37">
          <mxGeometry relative="1" as="geometry">
            <mxPoint x="540" y="48" as="sourcePoint" />
            <Array as="points">
              <mxPoint x="540" y="68" />
              <mxPoint x="610" y="68" />
              <mxPoint x="610" y="-88" />
            </Array>
          </mxGeometry>
        </mxCell>
        <mxCell id="QErU5TyWKrit9KBBjGT5-21" style="edgeStyle=orthogonalEdgeStyle;rounded=0;orthogonalLoop=1;jettySize=auto;html=1;exitX=0;exitY=0.5;exitDx=0;exitDy=0;entryX=0;entryY=0.5;entryDx=0;entryDy=0;" edge="1" parent="1" source="aW2y5IfelmXRPiVyuJwB-2" target="aW2y5IfelmXRPiVyuJwB-60">
          <mxGeometry relative="1" as="geometry" />
        </mxCell>
        <mxCell id="QErU5TyWKrit9KBBjGT5-22" style="edgeStyle=orthogonalEdgeStyle;rounded=0;orthogonalLoop=1;jettySize=auto;html=1;entryX=0.25;entryY=1;entryDx=0;entryDy=0;" edge="1" parent="1" source="aW2y5IfelmXRPiVyuJwB-2" target="aW2y5IfelmXRPiVyuJwB-45">
          <mxGeometry relative="1" as="geometry" />
        </mxCell>
        <mxCell id="QErU5TyWKrit9KBBjGT5-23" style="edgeStyle=orthogonalEdgeStyle;rounded=0;orthogonalLoop=1;jettySize=auto;html=1;entryX=0.25;entryY=0;entryDx=0;entryDy=0;" edge="1" parent="1" source="aW2y5IfelmXRPiVyuJwB-58" target="aW2y5IfelmXRPiVyuJwB-36">
          <mxGeometry relative="1" as="geometry">
            <mxPoint x="369.9999999999998" y="-210" as="targetPoint" />
            <Array as="points">
              <mxPoint x="350" y="135" />
              <mxPoint x="350" y="-170" />
              <mxPoint x="725" y="-170" />
            </Array>
          </mxGeometry>
        </mxCell>
        <mxCell id="QErU5TyWKrit9KBBjGT5-33" style="edgeStyle=orthogonalEdgeStyle;rounded=0;orthogonalLoop=1;jettySize=auto;html=1;exitX=1;exitY=0.5;exitDx=0;exitDy=0;entryX=1;entryY=0.5;entryDx=0;entryDy=0;" edge="1" parent="1" source="aW2y5IfelmXRPiVyuJwB-10" target="edI8PjmjDtZ6T9lfZRyu-87">
          <mxGeometry relative="1" as="geometry">
            <mxPoint x="885" y="990" as="targetPoint" />
            <Array as="points">
              <mxPoint x="1260" y="509" />
              <mxPoint x="1260" y="930" />
              <mxPoint x="930" y="930" />
              <mxPoint x="930" y="940" />
              <mxPoint x="885" y="940" />
            </Array>
          </mxGeometry>
        </mxCell>
        <mxCell id="QErU5TyWKrit9KBBjGT5-18" style="edgeStyle=orthogonalEdgeStyle;rounded=0;orthogonalLoop=1;jettySize=auto;html=1;entryX=0;entryY=0.25;entryDx=0;entryDy=0;exitX=0.154;exitY=1;exitDx=0;exitDy=0;exitPerimeter=0;" edge="1" parent="1" source="aW2y5IfelmXRPiVyuJwB-8" target="edI8PjmjDtZ6T9lfZRyu-86">
          <mxGeometry relative="1" as="geometry">
            <mxPoint x="380" y="913" as="targetPoint" />
            <mxPoint x="180" y="550" as="sourcePoint" />
            <Array as="points">
              <mxPoint x="230" y="935" />
            </Array>
          </mxGeometry>
        </mxCell>
        <mxCell id="QErU5TyWKrit9KBBjGT5-19" value="notas" style="edgeLabel;html=1;align=center;verticalAlign=middle;resizable=0;points=[];" vertex="1" connectable="0" parent="QErU5TyWKrit9KBBjGT5-18">
          <mxGeometry x="0.5985" relative="1" as="geometry">
            <mxPoint x="-71" y="-5" as="offset" />
          </mxGeometry>
        </mxCell>
        <mxCell id="QErU5TyWKrit9KBBjGT5-41" value="" style="edgeStyle=orthogonalEdgeStyle;rounded=0;orthogonalLoop=1;jettySize=auto;html=1;" edge="1" parent="1" source="aW2y5IfelmXRPiVyuJwB-8" target="edI8PjmjDtZ6T9lfZRyu-38">
          <mxGeometry relative="1" as="geometry" />
        </mxCell>
        <mxCell id="QErU5TyWKrit9KBBjGT5-42" value="" style="edgeStyle=orthogonalEdgeStyle;rounded=0;orthogonalLoop=1;jettySize=auto;html=1;" edge="1" parent="1" source="aW2y5IfelmXRPiVyuJwB-8" target="edI8PjmjDtZ6T9lfZRyu-38">
          <mxGeometry relative="1" as="geometry" />
        </mxCell>
        <mxCell id="QErU5TyWKrit9KBBjGT5-43" value="Relation" style="endArrow=open;html=1;endSize=12;startArrow=diamondThin;startSize=14;startFill=0;edgeStyle=orthogonalEdgeStyle;rounded=0;" edge="1" parent="1">
          <mxGeometry relative="1" as="geometry">
            <mxPoint x="490" y="480" as="sourcePoint" />
            <mxPoint x="490" y="50" as="targetPoint" />
          </mxGeometry>
        </mxCell>
        <mxCell id="QErU5TyWKrit9KBBjGT5-44" value="1...n" style="edgeLabel;resizable=0;html=1;align=left;verticalAlign=top;" connectable="0" vertex="1" parent="QErU5TyWKrit9KBBjGT5-43">
          <mxGeometry x="-1" relative="1" as="geometry">
            <mxPoint x="10" y="-20" as="offset" />
          </mxGeometry>
        </mxCell>
        <mxCell id="QErU5TyWKrit9KBBjGT5-45" value="1" style="edgeLabel;resizable=0;html=1;align=right;verticalAlign=top;" connectable="0" vertex="1" parent="QErU5TyWKrit9KBBjGT5-43">
          <mxGeometry x="1" relative="1" as="geometry">
            <mxPoint x="10" y="20" as="offset" />
          </mxGeometry>
        </mxCell>
        <mxCell id="QErU5TyWKrit9KBBjGT5-48" value="Relation" style="endArrow=open;html=1;endSize=12;startArrow=diamondThin;startSize=14;startFill=0;edgeStyle=orthogonalEdgeStyle;rounded=0;exitX=0.25;exitY=0;exitDx=0;exitDy=0;entryX=0.481;entryY=0.502;entryDx=0;entryDy=0;entryPerimeter=0;" edge="1" parent="1" source="aW2y5IfelmXRPiVyuJwB-1" target="aW2y5IfelmXRPiVyuJwB-55">
          <mxGeometry x="0.0854" y="12" relative="1" as="geometry">
            <mxPoint x="250" y="210" as="sourcePoint" />
            <mxPoint x="260" y="230" as="targetPoint" />
            <Array as="points">
              <mxPoint x="242" y="230" />
              <mxPoint x="257" y="230" />
            </Array>
            <mxPoint as="offset" />
          </mxGeometry>
        </mxCell>
        <mxCell id="QErU5TyWKrit9KBBjGT5-49" value="1...n" style="edgeLabel;resizable=0;html=1;align=left;verticalAlign=top;" connectable="0" vertex="1" parent="QErU5TyWKrit9KBBjGT5-48">
          <mxGeometry x="-1" relative="1" as="geometry">
            <mxPoint x="-22" y="-90" as="offset" />
          </mxGeometry>
        </mxCell>
        <mxCell id="QErU5TyWKrit9KBBjGT5-50" value="1" style="edgeLabel;resizable=0;html=1;align=right;verticalAlign=top;" connectable="0" vertex="1" parent="QErU5TyWKrit9KBBjGT5-48">
          <mxGeometry x="1" relative="1" as="geometry">
            <mxPoint x="23" y="-30" as="offset" />
          </mxGeometry>
        </mxCell>
        <mxCell id="QErU5TyWKrit9KBBjGT5-51" value="Relation" style="endArrow=open;html=1;endSize=12;startArrow=diamondThin;startSize=14;startFill=0;edgeStyle=orthogonalEdgeStyle;rounded=0;entryX=1;entryY=0.25;entryDx=0;entryDy=0;exitX=0;exitY=0;exitDx=0;exitDy=0;" edge="1" parent="1" source="edI8PjmjDtZ6T9lfZRyu-34" target="aW2y5IfelmXRPiVyuJwB-5">
          <mxGeometry x="-0.0536" relative="1" as="geometry">
            <mxPoint x="410" y="460" as="sourcePoint" />
            <mxPoint x="490" y="386" as="targetPoint" />
            <Array as="points">
              <mxPoint x="410" y="490" />
              <mxPoint x="410" y="357" />
            </Array>
            <mxPoint y="1" as="offset" />
          </mxGeometry>
        </mxCell>
        <mxCell id="QErU5TyWKrit9KBBjGT5-52" value="1...n" style="edgeLabel;resizable=0;html=1;align=left;verticalAlign=top;" connectable="0" vertex="1" parent="QErU5TyWKrit9KBBjGT5-51">
          <mxGeometry x="-1" relative="1" as="geometry">
            <mxPoint x="-30" as="offset" />
          </mxGeometry>
        </mxCell>
        <mxCell id="QErU5TyWKrit9KBBjGT5-53" value="1" style="edgeLabel;resizable=0;html=1;align=right;verticalAlign=top;" connectable="0" vertex="1" parent="QErU5TyWKrit9KBBjGT5-51">
          <mxGeometry x="1" relative="1" as="geometry">
            <mxPoint x="20" as="offset" />
          </mxGeometry>
        </mxCell>
        <mxCell id="QErU5TyWKrit9KBBjGT5-54" value="Relation" style="endArrow=open;html=1;endSize=12;startArrow=diamondThin;startSize=14;startFill=0;edgeStyle=orthogonalEdgeStyle;rounded=0;" edge="1" parent="1">
          <mxGeometry x="0.2" y="10" relative="1" as="geometry">
            <mxPoint x="570" y="480" as="sourcePoint" />
            <mxPoint x="720" y="40" as="targetPoint" />
            <Array as="points">
              <mxPoint x="570" y="400" />
              <mxPoint x="720" y="400" />
            </Array>
            <mxPoint as="offset" />
          </mxGeometry>
        </mxCell>
        <mxCell id="QErU5TyWKrit9KBBjGT5-55" value="1...n" style="edgeLabel;resizable=0;html=1;align=left;verticalAlign=top;" connectable="0" vertex="1" parent="QErU5TyWKrit9KBBjGT5-54">
          <mxGeometry x="-1" relative="1" as="geometry">
            <mxPoint x="10" y="-20" as="offset" />
          </mxGeometry>
        </mxCell>
        <mxCell id="QErU5TyWKrit9KBBjGT5-56" value="1...n" style="edgeLabel;resizable=0;html=1;align=right;verticalAlign=top;" connectable="0" vertex="1" parent="QErU5TyWKrit9KBBjGT5-54">
          <mxGeometry x="1" relative="1" as="geometry">
            <mxPoint x="-10" as="offset" />
          </mxGeometry>
        </mxCell>
        <mxCell id="QErU5TyWKrit9KBBjGT5-62" value="&lt;span style=&quot;font-size: 72px;&quot;&gt;&lt;font face=&quot;Times New Roman&quot;&gt;Diagrama de classe de um sistema de controle academico&lt;/font&gt;&lt;/span&gt;" style="text;html=1;strokeColor=none;fillColor=none;align=center;verticalAlign=middle;whiteSpace=wrap;rounded=0;" vertex="1" parent="1">
          <mxGeometry x="100" y="-710" width="850" height="320" as="geometry" />
        </mxCell>
        <mxCell id="QErU5TyWKrit9KBBjGT5-63" value="1...n" style="text;whiteSpace=wrap;html=1;" vertex="1" parent="1">
          <mxGeometry x="270" y="280" width="60" height="40" as="geometry" />
        </mxCell>
      </root>
    </mxGraphModel>
  </diagram>
</mxfile>
